# xmcd
#
# Track frame offsets: 
#        150
#        16090
#        34903
#        61269
#        77663
#        98205
#        116234
#        133604
#        153397
#        184223
#        205902
#
# Disc length: 2970 seconds
#
# Revision: 2
# Processed by: cddbd v1.5.2PL0 Copyright (c) Steve Scherf et al.
# Submitted via: ExactAudioCopy v0.99pb5
#
DISCID=8f0b980b
DTITLE=Buika - Niña De Fuego
DYEAR=2008
DGENRE=Folk
TTITLE0=La falsa moneda
TTITLE1=Culpa mía
TTITLE2=Miénteme bien
TTITLE3=La niña de fuego
TTITLE4=Arboles de agua
TTITLE5=La niebla
TTITLE6=No habrá nadie en el mundo
TTITLE7=Volver, volver
TTITLE8=Volverás
TTITLE9=Mentirosa
TTITLE10=Hay en la luz
EXTD=
EXTT0=
EXTT1=
EXTT2=
EXTT3=
EXTT4=
EXTT5=
EXTT6=
EXTT7=
EXTT8=
EXTT9=
EXTT10=
PLAYORDER=
